<svg width="60" height="60" viewBox="0 0 60 60" fill="none" xmlns="http://www.w3.org/2000/svg">
<path fill-rule="evenodd" clip-rule="evenodd" d="M28.6304 8.55496C30.43 5.5312 33.7259 3.5 37.5 3.5C43.2069 3.5 47.8235 8.14243 47.8235 13.8571C47.8235 18.2797 46.7259 22.3802 44.0563 26.6279C45.0236 27.1619 45.9682 27.6656 46.8874 28.1558C47.3033 28.3775 47.714 28.5965 48.1193 28.8143C49.8263 29.7316 51.4417 30.6302 52.8253 31.5805C55.586 33.4766 57.75 35.8064 57.75 39.3214V43.75V45.25H56.25H49.5023C49.9822 46.3005 50.25 47.4588 50.25 48.75V53.75V55.25H48.75H6.25H4.75V53.75V48.75C4.75 44.8752 7.13799 42.2953 10.2467 40.1683C11.805 39.1021 13.6271 38.0921 15.5616 37.0565C16.0197 36.8112 16.4844 36.5644 16.9553 36.3142C18.0543 35.7305 19.187 35.1288 20.3481 34.4878C17.2628 29.6608 16 25.0155 16 20C16 13.6487 21.1487 8.5 27.5 8.5C27.8811 8.5 28.2582 8.51859 28.6304 8.55496ZM31.7431 9.30857C35.9942 10.9972 39 15.1463 39 20C39 25.0155 37.7372 29.6608 34.6519 34.4877C35.6383 35.0323 36.6069 35.55 37.5515 36.0522C37.7208 36.1422 37.8894 36.2318 38.0574 36.321C39.2622 36.961 40.4305 37.5815 41.5221 38.1942C43.7508 39.4451 45.7949 40.7345 47.3356 42.25H54.75V39.3214C54.75 37.3007 53.6052 35.7556 51.1269 34.0534C49.8911 33.2046 48.4044 32.3733 46.6992 31.4569C46.3107 31.2482 45.9111 31.0351 45.502 30.817C44.1375 30.0894 42.6689 29.3064 41.1654 28.444L39.7385 27.6255L40.6848 26.2799C43.6828 22.0174 44.8235 18.1121 44.8235 13.8571C44.8235 9.78852 41.5393 6.5 37.5 6.5C35.1676 6.5 33.0859 7.59582 31.7431 9.30857ZM27.5 11.5C22.8056 11.5 19 15.3056 19 20C19 24.8442 20.3057 29.2912 23.7254 34.1349L24.6774 35.4834L23.2442 36.3024C21.5433 37.2743 19.8826 38.1564 18.3366 38.9776C17.8726 39.224 17.4189 39.465 16.9775 39.7013C15.0448 40.736 13.3513 41.6791 11.9408 42.6442C9.11201 44.5797 7.75 46.3748 7.75 48.75V52.25H47.25V48.75C47.25 47.2127 46.6873 45.96 45.5922 44.762C44.3587 43.4125 42.4894 42.1773 40.0538 40.8103C38.9947 40.2159 37.8597 39.613 36.6508 38.9709C36.483 38.8817 36.3138 38.7918 36.1431 38.7011C34.75 37.9604 33.2732 37.1694 31.7558 36.3024L30.3226 35.4834L31.2746 34.1349C34.6943 29.2912 36 24.8442 36 20C36 15.8789 33.0656 12.4398 29.1715 11.664C28.6323 11.5566 28.0735 11.5 27.5 11.5Z" fill="#7C4DFF"/>
</svg>
