<svg width="28" height="30" viewBox="0 0 28 30" fill="none" xmlns="http://www.w3.org/2000/svg">
<path fill-rule="evenodd" clip-rule="evenodd" d="M27.1758 21.1801L27.1732 21.1896C27.0859 21.5087 24.9282 29.4024 16.8247 29.4C9.70741 29.3978 6.33393 23.1389 6.33393 23.1389C5.81524 23.1682 5.31473 23.0849 4.85309 22.9133C2.76496 22.1372 1.76308 19.7203 2.48355 17.6926L1.33591 16.8053C-3.1097 13.379 9.4839 -2.29953 13.9372 1.24821C13.9597 1.26614 15.0003 2.11349 15.0003 2.11349C16.5993 1.1311 18.1828 0.600033 19.4701 0.599976C20.3842 0.59986 21.1487 0.867621 21.6636 1.43165C22.8195 2.69782 22.4041 5.1157 20.8257 7.56366C21.1652 7.88972 21.4465 8.33288 21.6474 8.77281C22.1491 9.1645 22.4744 9.75999 22.636 10.5824C22.7359 11.0904 22.7919 11.718 22.8412 12.2716C22.8807 12.7148 22.9159 13.1104 22.9661 13.3593C23.0726 13.4079 23.1411 13.4387 23.191 13.4612C23.238 13.4823 23.2686 13.4961 23.299 13.5104C23.3556 13.5369 23.4115 13.5652 23.5716 13.6461C23.5992 13.6601 23.6299 13.6756 23.6643 13.693C24.1375 13.9323 24.7136 14.2236 25.3504 14.8435C26.4823 15.1304 26.9145 16.3479 26.2522 17.1788C26.2344 17.2011 26.1545 17.297 26.0716 17.3923C26.0747 17.4004 26.0823 17.4156 26.0937 17.4381C26.1565 17.5626 26.3325 17.9118 26.4652 18.5254C26.9342 18.6374 27.3078 18.9296 27.5039 19.3533C27.843 20.1825 27.1758 21.1801 27.1758 21.1801ZM23.9119 27.3343V27.6754H24.041V27.3343H24.1731V27.2267H23.7816V27.3343H23.9119ZM24.2126 27.6754V27.2267H24.3966L24.4773 27.4849L24.5568 27.2267H24.7409V27.6754H24.6232V27.3505L24.527 27.6754H24.4265L24.3303 27.3514V27.6754H24.2126Z" fill="#5B453E"/>
<path fill-rule="evenodd" clip-rule="evenodd" d="M26.4524 20.6977C26.3502 21.0802 25.8494 22.9548 23.8448 24.5358C21.0605 26.732 17.4022 26.5098 16.0206 25.279C15.2825 24.586 14.963 23.5949 14.963 23.5949C14.963 23.5949 14.8794 24.1534 14.8652 24.3728C14.3084 23.4223 14.3554 22.2614 14.3554 22.2614C14.3554 22.2614 14.0584 22.8173 13.9225 23.1287C13.5127 22.0818 13.7244 21.0008 13.7244 21.0008L13.4002 21.4859C13.4002 21.4859 13.2482 20.301 13.6214 19.3141C14.0203 18.2595 14.7937 17.4934 14.9466 17.3979C14.3598 17.2106 13.6838 16.674 13.6826 16.673C13.6826 16.673 13.9514 16.6908 14.1383 16.6478C14.1383 16.6478 12.9519 15.7946 12.7439 14.4893C12.9158 14.7025 13.2764 14.9434 13.2764 14.9434C13.1597 14.6017 13.089 13.8418 13.1981 13.0938L13.1985 13.093C13.4229 11.6641 14.5961 10.7337 15.9249 10.7454C16.1789 10.7476 16.4178 10.7591 16.6457 10.77C17.6877 10.8199 18.5006 10.8589 19.4737 9.95819C19.4874 9.94551 19.5009 9.93293 19.5144 9.92045C19.747 9.70437 19.9442 9.52111 20.2773 9.44701C20.2839 9.44554 20.2922 9.44312 20.3025 9.44013C20.3501 9.42624 20.4401 9.40002 20.5957 9.40002C20.787 9.40002 20.9713 9.44321 21.1399 9.54397C21.7832 9.92827 21.9218 10.9306 21.991 11.6656C22.1472 13.3318 22.1694 13.7983 22.4139 14.0375C22.5694 14.1897 22.815 14.2498 23.2424 14.4684C23.2929 14.4942 23.3441 14.5199 23.3959 14.5459C23.8812 14.7893 24.4207 15.0599 25.0264 15.7109C25.0298 15.7146 25.0346 15.7167 25.0395 15.7168C25.605 15.7304 25.8964 16.1773 25.6355 16.5026C23.7382 18.777 21.0882 19.8661 18.1349 19.9573C18.0404 19.9597 17.8546 19.964 17.7749 19.9659C17.7517 19.9664 17.7375 19.9668 17.7371 19.9668C16.5443 20.0031 16.156 21.552 16.9044 22.4835C17.3774 23.0722 18.2872 23.2657 19.0361 23.2686L19.0467 23.2648C22.2757 23.3305 25.5197 21.037 26.08 19.7722C26.084 19.7631 26.1182 19.6826 26.1182 19.6826C26.1182 19.6826 26.0884 19.7177 26.0524 19.7473C26.0507 19.7485 26.0421 19.7563 26.027 19.7701C25.721 20.0507 22.7181 22.8042 19.0212 22.7002C19.0212 22.7002 18.6033 22.6915 18.2099 22.5995C17.691 22.4784 17.2968 22.2496 17.146 21.7305C17.1011 21.6354 17.0754 21.3065 17.135 21.085C17.2972 20.5399 17.569 20.5351 17.9895 20.5278C18.0524 20.5267 18.1186 20.5255 18.1884 20.5225H18.1884C20.1011 20.4585 21.6445 19.9758 22.8012 19.4245C24.0347 18.8367 24.9747 18.0794 25.3134 17.6971C25.7527 18.4395 25.7501 19.3929 25.7501 19.3929C25.7501 19.3929 25.9224 19.3325 26.1505 19.3325C26.8674 19.3325 27.0149 19.9761 26.4722 20.6295C26.4689 20.636 26.4626 20.6594 26.4524 20.6977ZM8.63078 17.1978C8.63078 17.1978 8.54152 17.5687 8.36441 18.0205C8.19436 16.5743 7.58969 16.2683 7.58969 16.2684C7.23936 16.1054 6.85206 16.015 6.44482 16.015C4.87364 16.015 3.59999 17.3609 3.59999 19.0212C3.59999 20.6815 4.87364 22.0274 6.44482 22.0274C8.21446 22.0274 9.55772 20.3361 9.24505 18.4885C9.24505 18.4885 9.06461 18.9113 8.89653 19.1357C8.93724 18.4743 8.83352 17.82 8.63078 17.1978Z" fill="#F2D8B4"/>
<path d="M2.70052 16.6C2.68918 16.597 1.61985 15.8359 1.46773 15.5853C0.568007 14.1127 2.13331 11.0881 3.24722 9.3689C5.99995 5.11994 10.5819 1.76671 12.6629 2.24557L14.8 3.31547C13.9702 3.78886 13.1677 4.37033 12.6869 4.75705L12.2322 5.12691C12.2322 5.12691 10.9042 5.99404 10.2437 6.54068C7.59609 8.73182 4.9892 12.1239 4.02246 15.3981C4.02246 15.398 3.22812 15.7805 2.70052 16.6Z" fill="#207EAC"/>
<path d="M13.2 2.24945C11.0787 1.72992 6.40839 5.36784 3.60243 9.97766C3.60162 9.97898 3.6008 9.98036 3.59999 9.98168L3.61132 9.98294L5.84713 11.8C8.30201 7.77737 11.3874 5.7032 11.4744 5.64227L11.1199 3.18021L11.784 2.85198L13.1168 3.29751L13.0148 2.83789L13.2 2.24945Z" fill="#4FB1D3"/>
<path d="M16.4 2.84704L13.9722 4.47342L13.8023 4.60002L11.6494 2.92475L11.6 2.60793L12.3485 2.2666C12.387 2.27845 13.7915 2.71164 13.8508 2.72992L13.8759 1.84164L13.9446 1.64001L14.6022 1.40002C14.6031 1.40065 16.3975 2.84498 16.4 2.84704Z" fill="#FACD55"/>
<path d="M19.0699 1.40002C17.6984 1.40002 16.1586 2.16061 14.9774 2.90839C14.8117 3.01119 14.6473 3.11877 14.4863 3.22841L13.8682 2.68215L14.0927 3.50472C14.0078 3.56618 13.925 3.62745 13.8439 3.68838L12.5669 3.27724L13.4118 4.02302C13.2189 4.17719 13.0466 4.32151 12.9036 4.44648L10.8772 2.68233L10.9845 3.47299L12.4573 4.84117C12.4573 4.84117 11.1539 5.7663 10.5058 6.34959C7.90728 8.68737 5.34879 12.3066 4.39999 15.8L4.45392 15.7681C4.46124 15.7638 4.46863 15.7602 4.47596 15.756C4.50236 15.741 4.52865 15.7267 4.55505 15.7127C4.572 15.7037 4.58884 15.6946 4.60578 15.6861C4.63291 15.6723 4.6601 15.6595 4.68728 15.6469C4.70328 15.6394 4.71939 15.6316 4.73545 15.6246C4.76487 15.6115 4.79424 15.5997 4.82366 15.588C4.83725 15.5826 4.85084 15.5766 4.86444 15.5715C4.90728 15.5553 4.94996 15.5404 4.99253 15.527C5.63759 15.3241 6.51518 15.1937 7.54251 15.6536C8.05842 14.2816 8.67478 12.8857 9.64612 11.5445C10.4337 10.4569 11.1908 9.486 12.0994 8.95201C13.8199 7.24789 18.4571 5.44086 19.9428 7.0072C20.294 6.40132 20.5989 5.82775 20.8501 5.10875C21.4699 3.37969 21.4812 1.40002 19.0699 1.40002Z" fill="#131B23"/>
<path d="M14 2.99995L13.4962 2.19995L13.2 2.59851L13.3773 2.91181L14 2.99995Z" fill="#131B23"/>
<path fill-rule="evenodd" clip-rule="evenodd" d="M18.6589 1.40002C17.9059 1.479 17.1207 1.75298 16.3882 2.09976C13.9153 3.29065 12.1893 5.04737 11.9823 5.25807C11.9734 5.26712 11.9673 5.27331 11.9641 5.27649C11.7587 5.47881 11.5539 5.68837 11.3508 5.90405C10.7466 6.54554 10.1562 7.24028 9.60306 7.95468C8.62491 9.21778 8.21788 9.8072 7.59999 11.0078C7.5999 11.008 7.60411 11.0028 7.61236 10.9926C7.83534 10.7185 11.0081 6.81792 11.82 5.991C13.3649 4.41746 15.8936 2.66503 15.9199 2.64942C16.9997 1.97097 17.911 1.5728 18.6589 1.40002ZM24.7743 17.2386C25.1999 17.9744 25.1973 18.9193 25.1973 18.9193C25.2047 19.1905 25.196 19.34 25.1812 19.5498C24.318 20.2981 21.7445 22.2855 18.678 22.1972C18.678 22.1972 18.2731 22.1886 17.8919 22.0975C17.392 21.9781 17.0115 21.753 16.8635 21.2444L16.8612 21.2361L16.8609 21.2355C16.8586 21.2303 16.8396 21.1845 16.8273 21.0858L16.8268 21.0819L16.8264 21.0782C16.8236 21.0536 16.8213 21.0274 16.8197 21.0001L16.8192 20.9906L16.819 20.9874C16.8168 20.9438 16.8163 20.8938 16.8181 20.837C16.8189 20.8171 16.8201 20.7972 16.8217 20.7774L16.8219 20.7775L16.8221 20.7712C16.8273 20.7099 16.8364 20.6499 16.8505 20.5964C17.0077 20.0561 17.2711 20.0514 17.6784 20.0441C17.7394 20.043 17.8036 20.0418 17.8711 20.0388H17.8712C19.7243 19.9755 21.2197 19.497 22.3404 18.9507C23.5354 18.3681 24.4461 17.6175 24.7743 17.2386Z" fill="#FFFFFE"/>
<path fill-rule="evenodd" clip-rule="evenodd" d="M21.606 12.489C21.7405 13.922 21.7724 14.2624 22.0564 14.4643C22.0643 14.4719 22.0722 14.4785 22.0803 14.4838C21.8896 14.5394 21.7189 14.5918 21.5675 14.6396C21.2887 14.2615 20.9014 13.908 20.1054 13.9655C19.0505 14.0561 18.2121 14.9992 18.3639 15.9357C17.8626 16.1886 17.3957 16.4508 16.9615 16.7178C16.245 16.7946 15.3722 17.042 14.6024 17.6865C14.0222 17.5038 13.3537 16.98 13.3525 16.979C13.3525 16.979 13.6184 16.9964 13.8031 16.9544C13.8031 16.9544 13.7903 16.9453 13.7672 16.9276C13.7662 16.9263 13.765 16.925 13.7636 16.924C13.7479 16.9116 13.7318 16.8994 13.7155 16.887C13.4395 16.6651 12.5958 15.9097 12.4243 14.8477C12.5942 15.0558 12.9509 15.2908 12.9509 15.2908C12.9466 15.2786 12.9424 15.2657 12.9383 15.2524L12.9389 15.25C12.9391 15.2488 12.9393 15.2475 12.9393 15.2463C12.9393 15.2463 12.8897 15.1051 12.855 14.833C12.8455 14.7566 12.8376 14.6752 12.8317 14.5899C12.828 14.5324 12.8251 14.4714 12.8234 14.4067C12.8671 13.8698 13.004 13.4187 13.345 12.992C13.8424 12.3699 14.5248 12.117 15.3121 12.1292C15.5289 12.1319 15.7478 12.1543 15.9761 12.1776C16.1953 12.2 16.423 12.2233 16.6655 12.2309C17.3417 12.252 17.993 12.1405 18.6784 11.8332C19.3556 11.5134 19.7385 11.1444 20.1392 10.5713C20.2804 10.4168 20.5295 10.1906 20.7498 10.2002C20.8959 10.2002 20.9973 10.272 21.0694 10.3344C21.4182 10.801 21.5147 11.5272 21.5686 12.0919C21.5817 12.2306 21.594 12.3609 21.6054 12.4832L21.6058 12.4873L21.606 12.489ZM19.5472 15.2533C19.71 14.7336 20.4482 14.4836 20.8939 14.7977C20.6948 14.9124 20.6334 15.2452 20.7549 15.4382C20.503 15.4336 20.244 15.5322 20.0619 15.7068C20.0788 15.4595 19.8052 15.2662 19.5472 15.2533ZM22.2387 25.4C22.6371 25.1923 23.0274 24.9446 23.4018 24.6532C25.3838 23.1104 25.8792 21.2809 25.9803 20.9073L25.9804 20.9072L25.9804 20.9071L25.9805 20.9068L25.9805 20.9068C25.9906 20.8696 25.9967 20.8469 26 20.8405C25.0824 22.0159 23.8821 22.95 22.5978 23.5966C21.5418 24.1287 20.7517 24.3137 20.7517 24.3137C20.7517 24.3137 21.3172 25.053 22.2387 25.4ZM16.2174 21.1399C16.3578 20.6222 16.7543 20.2121 17.3621 20.1938L17.4 20.1929L17.4026 20.1929C17.4831 20.191 17.6632 20.1868 17.7555 20.1845C20.6759 20.0956 23.2963 19.0326 25.1725 16.8128C25.4305 16.4953 25.1423 16.0591 24.5832 16.0458H24.5752C24.5269 16.0965 24.4988 16.1686 24.462 16.263C24.4269 16.3533 24.3837 16.4641 24.3073 16.5962C23.7366 17.5785 22.9473 18.0277 21.8947 18.5488C20.1837 19.3928 18.9094 19.581 17.9897 19.7169C17.1747 19.8373 16.6381 19.9166 16.3226 20.3745C16.1274 20.6613 16.1237 20.9816 16.2174 21.1399ZM22.4373 20.7721C22.4292 20.7723 22.4209 20.774 22.4076 20.777C22.366 20.7865 22.2737 20.8164 22.14 20.8596C21.2519 21.1468 18.539 22.0241 16.7372 21.4634C16.7279 21.5758 16.7309 21.812 16.7773 21.9146L16.7776 21.9152C17.0912 21.9775 17.4881 22.0173 17.9487 22.0173C20.6767 22.0173 22.6426 20.7885 22.4373 20.7721ZM7.17788 20.5182L7.17554 20.5198C5.89363 20.6134 4.7083 18.9904 5.40813 18.0954C5.50396 18.0239 5.58597 17.9828 5.61839 17.9666C5.62407 17.9637 5.62822 17.9617 5.63067 17.9603C5.64937 17.9505 5.66855 17.9425 5.68846 17.9342C5.70225 17.9284 5.7164 17.9225 5.731 17.9157C5.74501 17.9099 5.76114 17.9051 5.7789 17.9001C5.83574 17.8842 5.84796 17.8797 5.86044 17.8762C5.87289 17.8726 5.88559 17.87 5.94304 17.858H5.94293C6.56549 17.7273 7.0047 18.0002 7.19592 18.2686C7.28397 18.3921 7.30291 18.485 7.31664 18.5523C7.3211 18.5742 7.32502 18.5934 7.33058 18.6101L7.33069 18.6109C7.18163 18.4049 6.98912 18.3598 6.98912 18.3598C6.82683 18.2957 6.51496 18.3936 6.49464 18.7415C6.4852 18.8753 6.52546 19.0252 6.64102 19.157L6.64186 19.158C6.64599 19.1627 6.65018 19.1674 6.65453 19.172C6.6585 19.1763 6.66257 19.1806 6.66665 19.1848C6.76136 19.282 6.87394 19.3528 6.98145 19.4203C7.16592 19.5363 7.33545 19.6429 7.37418 19.8577C7.41365 20.0941 7.34398 20.3413 7.17788 20.5182Z" fill="#E2B986"/>
<path fill-rule="evenodd" clip-rule="evenodd" d="M19.8605 6.8486C18.8288 6.042 15.8177 6.27042 12.8031 8.25727C11.4229 9.16694 10.4107 10.162 9.63058 11.1957C9.63058 11.1957 10.8349 8.86777 13.4811 7.32799C13.2966 7.29784 12.8628 7.3506 12.7384 7.36574C12.7299 7.36678 12.7228 7.36764 12.7174 7.36828C13.1981 6.94783 14.0912 6.66714 14.7083 6.53953C14.5277 6.42267 14.0975 6.39317 13.884 6.3874C13.8258 6.38584 13.8219 6.38601 13.763 6.38852C13.7581 6.38874 13.7527 6.38896 13.7469 6.38921C14.3274 6.05918 15.4036 5.86551 16.382 6.04047C16.259 5.8745 15.9802 5.75339 15.7847 5.69451C15.7676 5.68931 15.6909 5.66993 15.6909 5.66993C15.6909 5.66993 15.7563 5.65422 15.7646 5.65258C16.354 5.53718 17.0424 5.66179 17.5871 5.88416C17.5252 5.73819 17.374 5.5682 17.2604 5.46061C17.2488 5.44959 17.181 5.40002 17.181 5.40002C17.7508 5.52011 18.2968 5.77283 18.7077 6.0598C18.6518 5.95006 18.5137 5.76537 18.4181 5.6645C18.9626 5.8229 19.5738 6.2177 19.8357 6.78366C19.8418 6.79569 19.8568 6.83771 19.8601 6.84694L19.8606 6.84826L19.8605 6.8486ZM17.4439 14.403C17.5027 14.4904 17.5184 14.5564 17.4947 14.5839C17.4521 14.6346 17.3107 14.578 17.1006 14.494L17.0282 14.4652C16.3886 14.2226 15.9174 14.1856 15.0833 14.5066L15.0167 14.5326C14.8408 14.6013 14.715 14.6505 14.6511 14.6408C14.5341 14.6231 14.6474 14.4054 14.903 14.1941C15.4174 13.7769 16.1239 13.6473 16.7276 13.8758C16.9918 13.9747 17.2886 14.1721 17.4439 14.403ZM17.3172 15.0683C17.1418 14.9321 16.819 14.8407 16.4837 14.8987C16.4314 14.9068 16.382 14.9211 16.3338 14.9351L16.3338 14.9351L16.3338 14.9351L16.3338 14.9351L16.3338 14.9351L16.3338 14.9351C16.3172 14.94 16.3008 14.9447 16.2844 14.9492C16.261 14.9551 16.2386 14.9635 16.2167 14.9728C16.0781 15.0322 15.9582 15.0962 15.8417 15.2097C15.7081 15.3409 15.6702 15.4628 15.7088 15.4928C15.7419 15.5197 15.8163 15.4885 15.9294 15.4412L15.9294 15.4412L15.9821 15.4193C16.4608 15.2169 16.7996 15.2115 17.1223 15.2344L17.1453 15.236C17.2882 15.2459 17.3833 15.2524 17.4063 15.2115C17.4233 15.1822 17.3924 15.1266 17.3172 15.0683ZM7.00895 17.5649L7.00884 17.5647C6.74725 17.3502 6.37646 17.2487 5.94564 17.3415H5.94575L5.93783 17.3432C5.88741 17.3541 5.87536 17.3567 5.86357 17.3601L5.85136 17.3639L5.85135 17.3639C5.83994 17.3675 5.82211 17.3732 5.78236 17.3846C5.76463 17.3896 5.74857 17.3946 5.73468 17.4005C5.72023 17.4074 5.70623 17.4134 5.69257 17.4192C5.67266 17.4278 5.6535 17.436 5.63481 17.4461L5.62272 17.4525C5.56755 17.4808 5.36685 17.5838 5.20066 17.7906C5.11185 17.9026 5.04361 18.0272 4.99381 18.1553C4.90383 18.392 4.87021 18.6515 4.87983 18.9007C4.89303 19.241 4.98207 19.4453 5.01538 19.5217L5.01539 19.5217L5.01539 19.5217C5.01937 19.5308 5.02255 19.5381 5.02471 19.5436C5.10979 19.7295 4.9105 19.7677 4.72872 19.5679L4.72827 19.5675C4.58283 19.4109 4.48969 19.1725 4.44412 18.9608V18.9606C4.41722 18.8348 4.39999 18.6936 4.39999 18.5416C4.39999 18.3653 4.42322 18.1746 4.48152 17.9769L4.48158 17.9767L4.48163 17.9765C4.6393 17.4574 4.99364 17.0653 5.53211 16.8518C5.56631 16.8382 5.60435 16.8281 5.63999 16.8186L5.64002 16.8186L5.64006 16.8186L5.6401 16.8186L5.64016 16.8185C5.65623 16.8143 5.67181 16.8101 5.68633 16.8058L5.68583 16.806C5.77653 16.7784 6.1013 16.7116 6.43147 16.7638C6.62254 16.7939 6.79632 16.8582 6.9461 16.9431C7.09559 17.0277 7.2213 17.1328 7.31678 17.2456L7.31717 17.2461C7.47322 17.4265 7.59099 17.6811 7.57003 17.9077L7.56998 17.9082C7.56214 18.0024 7.52113 18.1374 7.43766 18.1725C7.40659 18.1854 7.37547 18.1785 7.35368 18.1568C7.32926 18.1324 7.32237 18.0977 7.31309 18.051C7.29942 17.9822 7.28057 17.8873 7.19285 17.7611C7.14794 17.6963 7.0877 17.6285 7.00912 17.565L7.00895 17.5649ZM6.91692 18.4107C6.8574 18.3627 6.82978 18.3218 6.81333 18.2589C6.78904 18.1442 6.80171 18.0775 6.89814 18.0086C6.91905 17.9941 6.93881 17.9816 6.95641 17.9706C7.00131 17.9423 7.03219 17.9229 7.03235 17.8995C7.03568 17.838 6.78732 17.7747 6.61365 17.9486C6.46949 18.1048 6.42397 18.4304 6.654 18.6842C6.75083 18.7904 6.86799 18.866 6.97962 18.938C7.16319 19.0563 7.33178 19.165 7.37035 19.3848C7.37852 19.4348 7.38458 19.4906 7.3803 19.5456C7.3811 19.6021 7.36457 19.6807 7.36034 19.7009L7.35941 19.7054C7.28238 20.0467 6.96388 20.3723 6.4387 20.2894L6.41588 20.2859C6.33208 20.2733 6.27774 20.2651 6.26058 20.2901C6.22007 20.3474 6.44515 20.6093 6.85718 20.5998C7.26032 20.5911 7.66023 20.2842 7.78844 19.8228L7.78933 19.8195C7.7953 19.7976 7.82796 19.6774 7.83085 19.5689C7.83807 19.4821 7.8319 19.3928 7.81601 19.2994C7.73756 18.857 7.39484 18.6771 7.13669 18.5416C7.04919 18.4957 6.97141 18.4549 6.91692 18.4107ZM20.6165 14.5381C20.6506 14.316 20.8073 14.1564 20.9667 14.1816C21.1259 14.207 21.2275 14.4075 21.1934 14.6297C21.1593 14.8518 21.0025 15.0114 20.8432 14.9862C20.6839 14.9608 20.5824 14.7603 20.6165 14.5381ZM19.2163 14.8297C19.1287 14.9921 19.2353 15.2229 19.4545 15.3449C19.6736 15.4671 19.9222 15.4344 20.0098 15.2718C20.0973 15.1094 19.9907 14.8786 19.7715 14.7565C19.5524 14.6345 19.3038 14.6672 19.2163 14.8297Z" fill="#916D53"/>
<path d="M19.6002 13.2625C19.597 13.0425 19.6227 12.679 19.7758 12.6113C19.776 12.6113 19.7759 12.6113 19.7761 12.6112C20.0377 12.4884 20.3841 13.395 20.4 14.2C20.1933 14.0599 19.9504 14.0005 19.7006 14.0298C19.6378 13.7706 19.6077 13.5265 19.6002 13.2625Z" fill="#5B453E"/>
</svg>
